<svg version="1.1" id="Layer_1" xmlns="http://www.w3.org/2000/svg" xmlns:xlink="http://www.w3.org/1999/xlink" x="0px" y="0px"

viewBox="0 0 300 716.2" class="bodyImageSVG" style="enable-background:new 0 0 300 716.2;height:358.5;width:150px" xml:space="preserve" >
<g id="head-o">

<path id="Head"  class="st1" d="M178.6,76.7c3.8-6.3,7.2-12.9,10.4-19.5c1.6-3.4,2.4-6.5-1.6-9.8c-1.9-1.5-1.4-6.3-1.4-9.6

C185.8,15.9,170.9,0.4,150,0c-20.9,0.4-35.8,15.9-35.9,37.8c0,3.3,0.4,8.1-1.4,9.6c-4.1,3.3-3.3,6.5-1.6,9.8

c3.2,6.6,6.5,13.2,10.4,19.5c6.7,10.9,3.7,26.5-6.2,33.8h69.6C174.9,103.2,171.9,87.6,178.6,76.7z" fill="rgb(181,183,185)"/>

</g>
</svg>